{"title":"X-Men Days of Future Past 2014 Blu-Ray 1080p X264 Dual Audio Hin","uid":11155734,"size":3234871678,"categoryP":"video","categoryS":"hd___movies","magnet":"?xt=urn:btih:804e9adbff64b768f1ba101bbfd41f34543e7230&amp;dn=X-Men+Days+of+Future+Past+2014+Blu-Ray+1080p+X264+Dual+Audio+Hin&amp;tr=udp%3A%2F%2Ftracker.openbittorrent.com%3A80&amp;tr=udp%3A%2F%2Fopen.demonii.com%3A1337&amp;tr=udp%3A%2F%2Ftracker.coppersurfer.tk%3A6969&amp;tr=udp%3A%2F%2Fexodus.desync.com%3A6969","seeders":2,"leechers":2,"uploader":"honey8ee","files":2,"time":1412417890,"description":"Format : Matroska\nFormat version : Version 4 / Version 2\nFile size : 3.00 GiB\nDuration : 2h 11mn\nOverall bit rate : 3 261 Kbps\nMovie name : X-Men Days of Future Past 2014 Blu-Ray 1080p X264 Dual Audio Hindi DD5.1+Eng DD5.1...Hon3y \n\nVideo\nID : 3\nFormat : AVC\nFormat/Info : Advanced Video Codec\nFormat profile : &lt;a class=&quot;__cf_email__&quot; href=&quot;/cdn-cgi/l/email-protection&quot; data-cfemail=&quot;da92b3bdb29a96eef4eb&quot;&gt;[email&amp;#160;protected]&lt;/a&gt;&lt;script cf-hash='f9e31' type=&quot;text/javascript&quot;&gt;\n/* &lt;![CDATA[ */!function(){try{var t=&quot;currentScript&quot;in document?document.currentScript:function(){for(var t=document.getElementsByTagName(&quot;script&quot;),e=t.length;e--;)if(t[e].getAttribute(&quot;cf-hash&quot;))return t[e]}();if(t&amp;&amp;t.previousSibling){var e,r,n,i,c=t.previousSibling,a=c.getAttribute(&quot;data-cfemail&quot;);if(a){for(e=&quot;&quot;,r=parseInt(a.substr(0,2),16),n=2;a.length-n;n+=2)i=parseInt(a.substr(n,2),16)^r,e+=String.fromCharCode(i);e=document.createTextNode(e),c.parentNode.replaceChild(e,c)}}}catch(u){}}();/* ]]&gt; */&lt;/script&gt;\nFormat settings, CABAC : Yes\nFormat settings, ReFrames : 4 frames\nCodec ID : V_MPEG4/ISO/AVC\nDuration : 2h 11mn\nBit rate : 2 363 Kbps\nWidth : 1 920 pixels\nHeight : 800 pixels\nDisplay aspect ratio : 2.40:1\nFrame rate mode : Constant\nFrame rate : 23.976 fps\nColor space : YUV\nChroma subsampling : 4:2:0\nBit depth : 8 bits\nScan type : Progressive\nBits/(Pixel*Frame) : 0.064\nStream size : 2.11 GiB (71%)\nTitle : Bh@iyo888@Hon3yHD\nWriting library : x264 core\n\nAudio #1\nID : 1\nFormat : AC-3\nFormat/Info : Audio Coding 3\nMode extension : CM (complete main)\nFormat settings, Endianness : Big\nCodec ID : A_AC3\nDuration : 2h 11mn\nBit rate mode : Constant\nBit rate : 448 Kbps\nChannel(s) : 6 channels\nChannel positions : Front: L C R, Side: L R, LFE\nSampling rate : 48.0 KHz\nBit depth : 16 bits\nCompression mode : Lossy\nStream size : 422 MiB (14%)\nTitle : Bh@iyo888@Hon3yHD\nLanguage : Hindi\nDefault : Yes\nForced : No\n\nAudio #2\nID : 2\nFormat : AC-3\nFormat/Info : Audio Coding 3\nMode extension : CM (complete main)\nFormat settings, Endianness : Big\nCodec ID : A_AC3\nDuration : 2h 11mn\nBit rate mode : Constant\nBit rate : 448 Kbps\nChannel(s) : 6 channels\nChannel positions : Front: L C R, Side: L R, LFE\nSampling rate : 48.0 KHz\nBit depth : 16 bits\nCompression mode : Lossy\nStream size : 422 MiB (14%)\nTitle : Bh@iyo888@Hon3yHD\nLanguage : English\nDefault : No\nForced : No\n\nFor Screen Shots:\n &lt;a href=&quot;\nhttp://www.hon3yhd.com/index.php?page=torrent-details&amp;id=804e9adbff64b768f1ba101bbfd41f34543e7230&quot; rel=&quot;nofollow&quot; target=&quot;_NEW&quot;&gt;\nhttp://www.hon3yhd.com/index.php?page=torrent-details&amp;id=804e9adbff64b768f1ba101bbfd41f34543e7230&lt;/a&gt;","torrent":{"xt":"urn:btih:804e9adbff64b768f1ba101bbfd41f34543e7230","amp;dn":"X-Men+Days+of+Future+Past+2014+Blu-Ray+1080p+X264+Dual+Audio+Hin","amp;tr":["udp%3A%2F%2Ftracker.openbittorrent.com%3A80","udp%3A%2F%2Fopen.demonii.com%3A1337","udp%3A%2F%2Ftracker.coppersurfer.tk%3A6969","udp%3A%2F%2Fexodus.desync.com%3A6969"],"infoHash":"804e9adbff64b768f1ba101bbfd41f34543e7230","infoHashBuffer":{"type":"Buffer","data":[128,78,154,219,255,100,183,104,241,186,16,27,191,212,31,52,84,62,114,48]},"announce":[],"urlList":[]}}